<?xml version="1.0" standalone="no"?>
<!DOCTYPE svg PUBLIC "-//W3C//DTD SVG 20010904//EN"
 "http://www.w3.org/TR/2001/REC-SVG-20010904/DTD/svg10.dtd">
<svg version="1.0" xmlns="http://www.w3.org/2000/svg"
 width="1760.000000pt" height="1760.000000pt" viewBox="0 0 1760.000000 1760.000000"
 preserveAspectRatio="xMidYMid meet">
<metadata>
Created by potrace 1.11, written by Peter Selinger 2001-2013
</metadata>
<g transform="translate(0.000000,1760.000000) scale(0.100000,-0.100000)"
fill="#000000" stroke="none">
<path d="M0 8800 l0 -8800 8800 0 8800 0 0 8800 0 8800 -8800 0 -8800 0 0
-8800z m9094 8126 c103 -14 190 -27 193 -30 3 -3 145 -393 315 -868 171 -475
311 -864 312 -865 1 -1 67 -16 146 -33 848 -179 1674 -554 2370 -1076 80 -60
150 -112 156 -116 6 -4 382 168 835 383 l824 390 119 -123 c139 -145 327 -369
500 -597 l124 -164 -33 -71 c-18 -39 -204 -434 -414 -878 -209 -444 -381 -811
-381 -815 0 -4 40 -89 89 -188 364 -733 564 -1480 622 -2320 15 -217 6 -765
-16 -970 -51 -487 -139 -895 -285 -1335 -243 -732 -608 -1383 -1113 -1990
-156 -186 -551 -581 -737 -737 -613 -510 -1281 -883 -2025 -1129 -309 -102
-700 -196 -990 -237 l-90 -12 -3 -1181 -2 -1180 -203 -28 c-542 -75 -696 -75
-1249 1 l-198 27 0 1178 0 1178 -22 4 c-13 2 -116 21 -229 41 -1213 213 -2349
807 -3233 1691 -1202 1202 -1841 2832 -1775 4529 33 863 233 1659 610 2435
l110 225 -416 879 -416 878 25 37 c139 199 435 558 596 723 l125 128 824 -390
824 -390 151 114 c437 328 910 594 1407 792 296 117 652 223 1063 316 l60 13
310 867 311 868 30 4 c334 52 507 57 779 22z"/>
<path d="M8495 13654 c-16 -2 -86 -9 -155 -15 -1303 -115 -2544 -861 -3285
-1974 -668 -1003 -903 -2199 -665 -3385 299 -1488 1333 -2718 2760 -3283 357
-142 722 -232 1150 -284 181 -22 739 -25 925 -5 1038 111 1958 540 2689 1252
785 765 1244 1731 1347 2840 25 266 13 697 -27 985 -93 669 -325 1289 -691
1845 -773 1173 -2020 1911 -3417 2020 -118 9 -560 12 -631 4z m1141 -2944
c460 -839 837 -1529 837 -1535 0 -10 -1654 -3030 -1676 -3058 -10 -14 -145
225 -852 1513 -462 842 -840 1536 -840 1544 0 22 1679 3075 1687 3068 4 -4
384 -693 844 -1532z"/>
</g>
</svg>
